<?xml version="1.0" encoding="UTF-8" standalone="no"?>
<!DOCTYPE svg PUBLIC "-//W3C//DTD SVG 1.1//EN" "http://www.w3.org/Graphics/SVG/1.1/DTD/svg11.dtd">
<svg width="100%" height="100%" viewBox="0 0 4961 4961" version="1.1" xmlns="http://www.w3.org/2000/svg" xmlns:xlink="http://www.w3.org/1999/xlink" xml:space="preserve" xmlns:serif="http://www.serif.com/" style="fill-rule:evenodd;clip-rule:evenodd;stroke-linecap:round;stroke-linejoin:round;stroke-miterlimit:1.5;">
    <g transform="matrix(7.96388,0,0,7.01188,-14135.8,-6608.06)">
        <g transform="matrix(200,0,0,200,1764.53,1577.81)">
            <path d="M0.064,-0.714L0.064,-0L0.149,-0L0.149,-0.292C0.149,-0.315 0.152,-0.337 0.159,-0.357C0.165,-0.376 0.174,-0.393 0.187,-0.408C0.2,-0.423 0.216,-0.434 0.235,-0.442C0.254,-0.45 0.276,-0.454 0.302,-0.454C0.335,-0.454 0.36,-0.445 0.379,-0.426C0.398,-0.407 0.407,-0.382 0.407,-0.35L0.407,-0L0.492,-0L0.492,-0.34C0.492,-0.368 0.489,-0.393 0.484,-0.417C0.478,-0.44 0.468,-0.459 0.454,-0.476C0.44,-0.493 0.422,-0.506 0.399,-0.515C0.376,-0.524 0.348,-0.529 0.314,-0.529C0.299,-0.529 0.283,-0.527 0.267,-0.524C0.25,-0.521 0.235,-0.516 0.22,-0.509C0.205,-0.502 0.191,-0.493 0.179,-0.482C0.167,-0.47 0.158,-0.457 0.151,-0.441L0.149,-0.441L0.149,-0.714L0.064,-0.714Z" style="fill:white;fill-rule:nonzero;"/>
        </g>
        <g transform="matrix(200,0,0,200,1875.73,1577.81)">
            <path d="M0.522,-0.002C0.507,0.007 0.487,0.011 0.461,0.011C0.439,0.011 0.422,0.005 0.409,-0.008C0.396,-0.02 0.389,-0.04 0.389,-0.068C0.366,-0.04 0.338,-0.02 0.308,-0.008C0.277,0.005 0.243,0.011 0.207,0.011C0.184,0.011 0.162,0.008 0.141,0.003C0.12,-0.002 0.101,-0.011 0.086,-0.022C0.071,-0.033 0.058,-0.048 0.05,-0.067C0.041,-0.085 0.036,-0.107 0.036,-0.133C0.036,-0.162 0.041,-0.186 0.051,-0.205C0.061,-0.224 0.074,-0.239 0.091,-0.251C0.107,-0.262 0.126,-0.271 0.147,-0.277C0.167,-0.283 0.189,-0.288 0.211,-0.292C0.234,-0.297 0.257,-0.3 0.278,-0.303C0.299,-0.305 0.317,-0.308 0.333,-0.313C0.349,-0.317 0.362,-0.323 0.371,-0.332C0.38,-0.34 0.385,-0.352 0.385,-0.368C0.385,-0.387 0.382,-0.402 0.375,-0.413C0.368,-0.424 0.359,-0.433 0.348,-0.439C0.337,-0.445 0.324,-0.449 0.311,-0.451C0.297,-0.453 0.283,-0.454 0.27,-0.454C0.234,-0.454 0.204,-0.447 0.18,-0.434C0.156,-0.42 0.143,-0.394 0.141,-0.356L0.056,-0.356C0.057,-0.388 0.064,-0.415 0.076,-0.437C0.088,-0.459 0.104,-0.477 0.124,-0.491C0.144,-0.504 0.167,-0.514 0.193,-0.52C0.218,-0.526 0.246,-0.529 0.275,-0.529C0.298,-0.529 0.322,-0.527 0.345,-0.524C0.368,-0.521 0.388,-0.514 0.407,-0.504C0.426,-0.493 0.441,-0.479 0.452,-0.46C0.463,-0.441 0.469,-0.417 0.469,-0.387L0.469,-0.121C0.469,-0.101 0.47,-0.086 0.473,-0.077C0.475,-0.068 0.483,-0.063 0.496,-0.063C0.503,-0.063 0.512,-0.065 0.522,-0.068L0.522,-0.002ZM0.384,-0.267C0.373,-0.259 0.359,-0.253 0.342,-0.25C0.325,-0.246 0.307,-0.243 0.288,-0.241C0.269,-0.238 0.249,-0.236 0.23,-0.233C0.211,-0.23 0.193,-0.225 0.178,-0.218C0.163,-0.211 0.15,-0.202 0.141,-0.19C0.131,-0.177 0.126,-0.16 0.126,-0.139C0.126,-0.125 0.129,-0.113 0.135,-0.104C0.14,-0.094 0.148,-0.086 0.157,-0.08C0.166,-0.074 0.176,-0.07 0.188,-0.067C0.2,-0.064 0.213,-0.063 0.226,-0.063C0.254,-0.063 0.278,-0.067 0.298,-0.075C0.318,-0.082 0.334,-0.092 0.347,-0.104C0.36,-0.115 0.369,-0.128 0.375,-0.142C0.381,-0.155 0.384,-0.168 0.384,-0.18L0.384,-0.267Z" style="fill:white;fill-rule:nonzero;"/>
        </g>
        <g transform="matrix(200,0,0,200,1983.13,1577.81)">
            <path d="M0.064,-0.517L0.064,-0L0.149,-0L0.149,-0.292C0.149,-0.315 0.152,-0.337 0.159,-0.357C0.165,-0.376 0.174,-0.393 0.187,-0.408C0.2,-0.423 0.216,-0.434 0.235,-0.442C0.254,-0.45 0.276,-0.454 0.302,-0.454C0.335,-0.454 0.36,-0.445 0.379,-0.426C0.398,-0.407 0.407,-0.382 0.407,-0.35L0.407,-0L0.492,-0L0.492,-0.34C0.492,-0.368 0.489,-0.393 0.484,-0.417C0.478,-0.44 0.468,-0.459 0.454,-0.476C0.44,-0.493 0.422,-0.506 0.399,-0.515C0.376,-0.524 0.348,-0.529 0.314,-0.529C0.237,-0.529 0.181,-0.498 0.146,-0.435L0.144,-0.435L0.144,-0.517L0.064,-0.517Z" style="fill:white;fill-rule:nonzero;"/>
        </g>
        <g transform="matrix(200,0,0,200,2094.33,1577.81)">
            <path d="M0.522,-0.002C0.507,0.007 0.487,0.011 0.461,0.011C0.439,0.011 0.422,0.005 0.409,-0.008C0.396,-0.02 0.389,-0.04 0.389,-0.068C0.366,-0.04 0.338,-0.02 0.308,-0.008C0.277,0.005 0.243,0.011 0.207,0.011C0.184,0.011 0.162,0.008 0.141,0.003C0.12,-0.002 0.101,-0.011 0.086,-0.022C0.071,-0.033 0.058,-0.048 0.05,-0.067C0.041,-0.085 0.036,-0.107 0.036,-0.133C0.036,-0.162 0.041,-0.186 0.051,-0.205C0.061,-0.224 0.074,-0.239 0.091,-0.251C0.107,-0.262 0.126,-0.271 0.147,-0.277C0.167,-0.283 0.189,-0.288 0.211,-0.292C0.234,-0.297 0.257,-0.3 0.278,-0.303C0.299,-0.305 0.317,-0.308 0.333,-0.313C0.349,-0.317 0.362,-0.323 0.371,-0.332C0.38,-0.34 0.385,-0.352 0.385,-0.368C0.385,-0.387 0.382,-0.402 0.375,-0.413C0.368,-0.424 0.359,-0.433 0.348,-0.439C0.337,-0.445 0.324,-0.449 0.311,-0.451C0.297,-0.453 0.283,-0.454 0.27,-0.454C0.234,-0.454 0.204,-0.447 0.18,-0.434C0.156,-0.42 0.143,-0.394 0.141,-0.356L0.056,-0.356C0.057,-0.388 0.064,-0.415 0.076,-0.437C0.088,-0.459 0.104,-0.477 0.124,-0.491C0.144,-0.504 0.167,-0.514 0.193,-0.52C0.218,-0.526 0.246,-0.529 0.275,-0.529C0.298,-0.529 0.322,-0.527 0.345,-0.524C0.368,-0.521 0.388,-0.514 0.407,-0.504C0.426,-0.493 0.441,-0.479 0.452,-0.46C0.463,-0.441 0.469,-0.417 0.469,-0.387L0.469,-0.121C0.469,-0.101 0.47,-0.086 0.473,-0.077C0.475,-0.068 0.483,-0.063 0.496,-0.063C0.503,-0.063 0.512,-0.065 0.522,-0.068L0.522,-0.002ZM0.384,-0.267C0.373,-0.259 0.359,-0.253 0.342,-0.25C0.325,-0.246 0.307,-0.243 0.288,-0.241C0.269,-0.238 0.249,-0.236 0.23,-0.233C0.211,-0.23 0.193,-0.225 0.178,-0.218C0.163,-0.211 0.15,-0.202 0.141,-0.19C0.131,-0.177 0.126,-0.16 0.126,-0.139C0.126,-0.125 0.129,-0.113 0.135,-0.104C0.14,-0.094 0.148,-0.086 0.157,-0.08C0.166,-0.074 0.176,-0.07 0.188,-0.067C0.2,-0.064 0.213,-0.063 0.226,-0.063C0.254,-0.063 0.278,-0.067 0.298,-0.075C0.318,-0.082 0.334,-0.092 0.347,-0.104C0.36,-0.115 0.369,-0.128 0.375,-0.142C0.381,-0.155 0.384,-0.168 0.384,-0.18L0.384,-0.267Z" style="fill:white;fill-rule:nonzero;"/>
        </g>
        <g transform="matrix(200,0,0,200,2257.33,1577.81)">
            <path d="M0.522,-0.002C0.507,0.007 0.487,0.011 0.461,0.011C0.439,0.011 0.422,0.005 0.409,-0.008C0.396,-0.02 0.389,-0.04 0.389,-0.068C0.366,-0.04 0.338,-0.02 0.308,-0.008C0.277,0.005 0.243,0.011 0.207,0.011C0.184,0.011 0.162,0.008 0.141,0.003C0.12,-0.002 0.101,-0.011 0.086,-0.022C0.071,-0.033 0.058,-0.048 0.05,-0.067C0.041,-0.085 0.036,-0.107 0.036,-0.133C0.036,-0.162 0.041,-0.186 0.051,-0.205C0.061,-0.224 0.074,-0.239 0.091,-0.251C0.107,-0.262 0.126,-0.271 0.147,-0.277C0.167,-0.283 0.189,-0.288 0.211,-0.292C0.234,-0.297 0.257,-0.3 0.278,-0.303C0.299,-0.305 0.317,-0.308 0.333,-0.313C0.349,-0.317 0.362,-0.323 0.371,-0.332C0.38,-0.34 0.385,-0.352 0.385,-0.368C0.385,-0.387 0.382,-0.402 0.375,-0.413C0.368,-0.424 0.359,-0.433 0.348,-0.439C0.337,-0.445 0.324,-0.449 0.311,-0.451C0.297,-0.453 0.283,-0.454 0.27,-0.454C0.234,-0.454 0.204,-0.447 0.18,-0.434C0.156,-0.42 0.143,-0.394 0.141,-0.356L0.056,-0.356C0.057,-0.388 0.064,-0.415 0.076,-0.437C0.088,-0.459 0.104,-0.477 0.124,-0.491C0.144,-0.504 0.167,-0.514 0.193,-0.52C0.218,-0.526 0.246,-0.529 0.275,-0.529C0.298,-0.529 0.322,-0.527 0.345,-0.524C0.368,-0.521 0.388,-0.514 0.407,-0.504C0.426,-0.493 0.441,-0.479 0.452,-0.46C0.463,-0.441 0.469,-0.417 0.469,-0.387L0.469,-0.121C0.469,-0.101 0.47,-0.086 0.473,-0.077C0.475,-0.068 0.483,-0.063 0.496,-0.063C0.503,-0.063 0.512,-0.065 0.522,-0.068L0.522,-0.002ZM0.384,-0.267C0.373,-0.259 0.359,-0.253 0.342,-0.25C0.325,-0.246 0.307,-0.243 0.288,-0.241C0.269,-0.238 0.249,-0.236 0.23,-0.233C0.211,-0.23 0.193,-0.225 0.178,-0.218C0.163,-0.211 0.15,-0.202 0.141,-0.19C0.131,-0.177 0.126,-0.16 0.126,-0.139C0.126,-0.125 0.129,-0.113 0.135,-0.104C0.14,-0.094 0.148,-0.086 0.157,-0.08C0.166,-0.074 0.176,-0.07 0.188,-0.067C0.2,-0.064 0.213,-0.063 0.226,-0.063C0.254,-0.063 0.278,-0.067 0.298,-0.075C0.318,-0.082 0.334,-0.092 0.347,-0.104C0.36,-0.115 0.369,-0.128 0.375,-0.142C0.381,-0.155 0.384,-0.168 0.384,-0.18L0.384,-0.267Z" style="fill:white;fill-rule:nonzero;"/>
        </g>
        <g transform="matrix(200,0,0,200,2364.73,1577.81)">
            <path d="M0.154,-0.61L0.154,-0.714L0.069,-0.714L0.069,-0.61L0.154,-0.61ZM0.069,-0.517L0.069,-0L0.154,-0L0.154,-0.517L0.069,-0.517Z" style="fill:white;fill-rule:nonzero;"/>
        </g>
    </g>
    <g transform="matrix(7.26369,0,0,7.23534,-2848.54,-629.075)">
        <g transform="matrix(1,0,0,1,2.79438,0)">
            <path d="M721.9,499.98C703.1,522.98 677.3,524 659.3,515C648.3,509.6 640.4,501.1 636.4,489.5C632.6,478.2 632.7,466.7 636.9,455.5C631.5,457.3 626.4,459.5 621.1,460.7C604.1,464.6 588,462.5 573.9,451.4C564.4,443.9 559.2,433.9 558.7,421.6C557.9,401.5 567.8,387.6 584.4,377.7C585.2,377.3 585.9,376.8 586.3,376.6C580.5,373.8 574.2,371.4 568.6,367.8C558,361 550.2,351.9 547.4,339.2C543.2,320 552.2,301 569.7,291.8C580.4,286.2 591.8,284.3 603.7,286.2L605.2,286.2C602.8,281.8 599.9,277.7 598,273.2C590.1,254 594.5,231.8 611.4,218.6C626.6,206.7 649.4,205.6 667.3,216.7C671.6,219.4 675.6,222.6 679.6,225.4C680.4,219.7 680.6,213.8 682,208.2C686.8,188.4 697.9,173.8 718.3,168.2C738.2,162.8 757.8,170.8 769.9,188.6C775.8,197.3 779,207 780.2,217.4C780.5,220.1 780.7,222.8 781.1,225.9C786.2,220.7 792,216.6 798.4,213.7C821.3,203.2 848.1,210.3 861.1,232.5C870.3,248.2 867.9,271.7 855.8,285.2C855.6,285.5 855.3,285.8 854.7,286.6C857,286.4 858.7,286.1 860.4,286C880.1,284.8 896.5,291.1 908.1,307.5C919.3,323.3 917.1,346.1 903.7,360C896.1,367.9 887.2,373.2 876.6,376C876.2,376 875.9,376.3 876,376.3C880.7,380.2 886,383.8 890.4,388.3C903.5,401.7 906.9,422.2 898.7,438C891.4,452 879.3,459.6 863.9,461.8C850.7,463.7 838.1,461.7 826,455.9C825.5,455.7 825,455.5 824.1,455.2C825,458.8 826,462 826.7,465.3C831.3,489.2 818.8,513.2 793,519C772.8,523.5 751.936,515.532 738.6,497.1C734.246,491.083 734.7,491.02 730.8,485.3C730.2,489.3 721.9,499.98 721.9,499.98ZM730.8,434.7C741.8,434.7 752.5,432.7 762.8,429C797.6,416.5 817.9,384.1 813.9,348.4C811.2,324.4 799.8,305.1 779.9,291.5C760,277.8 737.9,273 714,277.7C692.4,281.9 674.7,292.4 661.7,310.2C649,327.8 644.7,347.5 647.9,368.9C650.8,388 659.8,403.7 674.9,415.8C691.2,428.8 710,434.7 730.7,434.8L730.8,434.7ZM735,265.6C737.1,265.8 739.5,266 741.8,266.3C744.1,266.6 746.5,266.8 748.8,267.3C756.4,268.9 756.4,268.9 759.8,262C766.8,247.8 770.7,233 768.3,217C766.4,204.6 761.5,193.9 751.7,185.7C738.1,174.4 717.2,175.5 705.8,187.8C692.8,201.7 689.6,218.3 692.2,236.6C693.8,247.7 698.9,257.7 703.6,267.7C703.9,268.3 705.1,268.8 705.8,268.7C708.3,268.3 710.8,267.5 713.3,267.2C717.5,266.6 721.8,266.1 726.3,265.6L726.3,262C726.7,256 727,250 727.6,244.1C727.8,242.3 727.8,239.3 730.6,239.5C733.2,239.6 733.2,242.5 733.4,244.4C734.1,251.4 734.6,258.5 735.1,265.9L735,265.6ZM810.2,305.2C818.5,300.3 827.2,295.7 835.4,290.2C845.9,283.2 853.1,273.6 854.9,260.6C857.9,239.1 843,220.6 821,219.8C806,219.2 794.2,226.2 784.4,237.2C775.3,247.3 772.4,260.6 766.1,271.8C771.9,275 777.4,278 783,280.9C783.6,281.2 785,280.7 785.6,280.1C789,277.1 792.1,273.7 795.7,271C798.7,268.7 802.2,267.1 805.6,265.4C806.2,265.1 807.6,265.4 807.9,265.9C808.3,266.6 808.3,267.8 807.9,268.6C807.6,269.5 806.8,270.2 806.1,270.9C801,275.9 795.9,281 791.2,285.7C797.5,292.2 803.5,298.5 810.1,305.4L810.2,305.2ZM651.2,304.9C657.3,298.3 663.4,291.9 669.4,285.5C664.5,280.6 659.4,275.6 654.4,270.5C653.9,270 653.3,269.5 653.2,268.9C653,268 652.7,266.8 653.2,266.2C653.6,265.6 654.9,265.2 655.7,265.4C657,265.7 658.4,266.2 659.4,267C665.4,271.5 671.3,276 677.2,280.6C682.5,277.9 688.3,274.9 694.1,272C691.8,266.8 689.1,261.9 687.2,256.6C683.6,246.6 677.8,238.2 669.6,231.5C659.2,223 647.7,217.9 634,220.3C623.7,222.1 615.4,227.1 610,236.3C601.3,251.2 605,271.5 618.1,284.1C627.8,293.4 640,298.6 651.1,304.9L651.2,304.9ZM817.7,394.2C821.8,396.4 826.4,398.5 830.6,401.1C833.9,403.2 836.9,405.7 839.8,408.3C840.5,409 840.4,410.6 840.7,411.7C839.6,411.9 838.3,412.5 837.4,412.2C832.8,410.8 828.2,409.3 823.8,407.6C820.1,406.1 816.6,404.2 813.3,402.6C808.5,408.6 803.9,414.3 799.1,420.3C805.2,427.9 812,435.3 820.5,441C834.1,450.2 848.9,454.4 865.2,450.5C876.4,447.8 885.2,441.5 889.4,430.4C894.4,417.4 890,402.3 879.5,393.1C871.1,385.8 861.3,381.1 850.5,378.8C841.8,376.9 833,375.8 824.5,374.3C822.1,381.3 819.9,387.6 817.6,394.1L817.7,394.2ZM825.2,364.5C836.5,366.8 847.2,368.7 858.1,368.3C870.3,367.8 881.5,364.7 891.2,356.9C901.8,348.4 906.4,335.4 902.9,322.7C898.9,308.1 884.1,297.3 867.6,296.6C847.7,295.8 831.1,304.3 815.4,314.1C818.2,321.3 820.8,328.1 823.5,335.1C823.7,335.1 824,335.1 824.3,335C832.4,332.9 840.5,330.8 848.9,331.2C850.2,331.2 851.4,332.6 852.7,333.4C851.8,334.4 851.1,335.9 849.9,336.4C846.3,337.8 842.5,338.9 838.7,340C834,341.3 829.3,342.4 825.2,343.5L825.2,364.7L825.2,364.5ZM647.9,402.5C640.9,405.5 633.7,408.6 626.4,411.5C624.4,412.3 622.1,412.1 619.9,412.3C619.8,411.9 619.6,411.5 619.5,411C624.9,401.9 634.7,398.5 643.2,393.9C641,387.4 638.9,381.2 636.6,374.3C627.3,375.8 617.6,376.7 608.3,379.1C594.5,382.7 582.3,389.1 574.4,401.9C567.2,413.7 568.7,430.7 578.5,440.4C589.5,451.3 603,453.5 617.6,450.7C629.7,448.4 639.7,442 648.4,433.7C653.2,429.2 657.5,424.2 661.7,419.7C656.8,413.6 652.3,408 647.8,402.4L647.9,402.5ZM637.8,334.2C640.2,327.9 642.8,320.9 645.4,313.8C632.6,305.6 619.2,298.4 603.6,296.8C593.1,295.7 582.8,296.7 573.4,302.5C557.3,312.5 552.2,333.3 563.4,348.6C571.4,359.5 582.5,364.8 595.5,367.2C604.3,368.8 613.1,368.3 621.9,367.1C626.5,366.5 631.1,365.5 635.7,364.8C635.7,358.9 635.2,353.3 635.8,347.9C636.4,342.4 636.2,343.6 631.9,342.3C625,340.3 618.1,338.5 611.3,336.3C610.1,335.9 609.3,334.5 608.3,333.5C609.6,332.7 610.9,331.8 612.3,331.1C612.7,330.9 613.3,331.1 613.8,331.1C621.7,332.2 629.7,333.3 637.7,334.4L637.8,334.2ZM768.1,439.3C770.5,446.5 773,453.9 775.2,461.4C775.8,463.3 776.3,466.2 773.7,467.1C771,468 770,465.3 769.1,463.4C766,456.8 763.1,450.2 760,443.6C759.6,442.8 758.5,441.8 757.9,441.8C750.6,443 743.3,444.4 735.6,445.8C735.6,453.8 736.5,462.1 738.6,470.2C742.3,483.9 749.1,495.6 761.1,503.7C774.9,512.9 793.3,511.6 805.1,500.7C814.9,491.6 816.8,480 815.3,467.7C813.2,450.6 801.8,438.8 791.2,427.4C783.1,431.6 775.4,435.6 768,439.4L768.1,439.3ZM669.6,426.5C666.1,430.5 662.1,434.9 658.4,439.4C649.4,450.3 644.4,462.4 645.5,477.1C647.1,497.9 666.2,513.7 688.9,508.3C701.8,505.2 710.4,496.5 716.7,485.3C721.2,477.2 722.9,468.2 723.9,459.1C724.4,454.6 724.5,450 724.8,445.9C717,444.3 709.8,442.8 702.6,441.4C702.1,441.4 701,442.3 700.7,443C698.5,447.7 696.6,452.6 694.4,457.3C693,460.2 691.4,463.1 689.6,465.7C689,466.5 687.4,467.2 686.4,467C685.7,466.9 685,465.3 684.9,464.2C684.7,462.8 684.9,461.2 685.3,459.8C687.7,452.7 690.3,445.6 692.6,438.8C685.3,434.9 677.8,430.8 669.7,426.4L669.6,426.5Z" style="fill:white;fill-rule:nonzero;"/>
        </g>
        <g transform="matrix(0.257575,0,0,0.257575,581.643,158.969)">
            <circle cx="450" cy="610" r="42" style="fill:white;"/>
        </g>
        <g transform="matrix(0.257575,0,0,0.257575,653.797,158.969)">
            <circle cx="450" cy="610" r="42" style="fill:white;"/>
        </g>
        <g transform="matrix(0.826043,0,0,0.774184,319.987,-151.941)">
            <path d="M580.5,655C580.5,655 568.376,739.527 500.75,739C436.55,738.5 426.685,675.287 422.016,658.842C421.323,656.402 421,655 421,655C421,655 451.964,639.83 492.252,639.827C507.391,639.826 489.229,639.827 504.368,639.827C538.956,639.827 556.297,646.326 580.5,655Z" style="fill:none;stroke:white;stroke-width:9.33px;"/>
        </g>
    </g>
</svg>
