<?xml version="1.0" encoding="UTF-8" standalone="no"?>
<!DOCTYPE svg PUBLIC "-//W3C//DTD SVG 1.1//EN" "http://www.w3.org/Graphics/SVG/1.1/DTD/svg11.dtd">
<svg width="100%" height="100%" viewBox="0 0 4961 3508" version="1.1" xmlns="http://www.w3.org/2000/svg" xmlns:xlink="http://www.w3.org/1999/xlink" xml:space="preserve" xmlns:serif="http://www.serif.com/" style="fill-rule:evenodd;clip-rule:evenodd;stroke-linecap:round;stroke-linejoin:round;stroke-miterlimit:1.5;">
    <path d="M614.059,2240.2L614.059,3135.98L693.099,3135.98L693.099,2758.35C693.935,2726.56 699.162,2697.08 708.781,2669.89C718.4,2642.71 731.782,2619.29 748.928,2599.64C766.074,2579.98 786.984,2564.51 811.658,2553.22C836.332,2541.93 864.56,2536.28 896.344,2536.28C928.127,2536.28 954.683,2541.3 976.011,2551.34C997.339,2561.37 1014.28,2575.17 1026.82,2592.74C1039.37,2610.3 1048.15,2631 1053.17,2654.84C1058.19,2678.68 1060.7,2704.4 1060.7,2732L1060.7,3135.98L1139.74,3135.98L1139.74,2719.45C1139.74,2680.98 1135.97,2646.27 1128.44,2615.32C1120.92,2584.37 1107.95,2558.24 1089.55,2536.91C1071.15,2515.58 1046.69,2499.06 1016.16,2487.35C985.629,2475.64 947.782,2469.79 902.617,2469.79C856.615,2469.79 814.376,2481.7 775.902,2505.54C737.428,2529.38 710.663,2560.95 695.608,2600.26L693.099,2600.26L693.099,2240.2L614.059,2240.2Z" style="fill:#fff;fill-rule:nonzero;"/>
    <path d="M1281.51,2686.83L1360.55,2686.83C1362.22,2634.14 1378.95,2595.87 1410.73,2572.04C1442.51,2548.2 1483.5,2536.28 1533.68,2536.28C1557.1,2536.28 1579.06,2538.16 1599.55,2541.93C1620.04,2545.69 1638.02,2552.59 1653.49,2562.63C1668.97,2572.66 1681.1,2586.26 1689.88,2603.4C1698.66,2620.55 1703.05,2642.5 1703.05,2669.27C1703.05,2686.83 1700.75,2701.05 1696.15,2711.92C1691.55,2722.8 1685.07,2731.37 1676.7,2737.64C1668.34,2743.92 1657.88,2748.31 1645.34,2750.82C1632.79,2753.33 1618.16,2755.42 1601.43,2757.09C1558.77,2762.11 1516.74,2767.34 1475.34,2772.77C1433.94,2778.21 1396.72,2787.62 1363.68,2801C1330.64,2814.38 1304.09,2833.83 1284.02,2859.34C1263.94,2884.85 1253.9,2920.19 1253.9,2965.35C1253.9,2997.97 1259.55,3026.2 1270.84,3050.04C1282.13,3073.88 1297.61,3093.53 1317.26,3109.01C1336.92,3124.48 1359.92,3135.77 1386.27,3142.88C1412.61,3149.99 1440.84,3153.54 1470.95,3153.54C1502.73,3153.54 1530.12,3150.62 1553.13,3144.76C1576.13,3138.91 1596.62,3130.54 1614.6,3119.67C1632.58,3108.8 1648.89,3095.2 1663.53,3078.89C1678.17,3062.59 1692.6,3043.97 1706.82,3023.07L1709.32,3023.07C1709.32,3039.79 1710.37,3055.06 1712.46,3068.86C1714.55,3082.66 1718.94,3094.58 1725.63,3104.61C1732.33,3114.65 1741.73,3122.39 1753.86,3127.82C1765.99,3133.26 1782.09,3135.98 1802.16,3135.98C1813.04,3135.98 1822.03,3135.56 1829.14,3134.72C1836.25,3133.89 1844.4,3132.63 1853.6,3130.96L1853.6,3064.47C1846.08,3067.81 1837.71,3069.49 1828.51,3069.49C1797.56,3069.49 1782.09,3053.59 1782.09,3021.81L1782.09,2678.05C1782.09,2634.56 1774.98,2599.22 1760.76,2572.04C1746.54,2544.85 1728.14,2523.73 1705.56,2508.68C1682.98,2493.62 1657.47,2483.38 1629.03,2477.94C1600.59,2472.51 1572.15,2469.79 1543.72,2469.79C1506.08,2469.79 1471.79,2473.97 1440.84,2482.33C1409.89,2490.7 1382.92,2503.66 1359.92,2521.22C1336.92,2538.79 1318.73,2561.37 1305.34,2588.97C1291.96,2616.58 1284.02,2649.19 1281.51,2686.83ZM1703.05,2782.18L1703.05,2885.06C1703.05,2916.84 1696.99,2945.28 1684.86,2970.37C1672.73,2995.46 1656.42,3016.79 1635.93,3034.36C1615.44,3051.92 1591.39,3065.3 1563.79,3074.5C1536.19,3083.7 1507.33,3088.3 1477.22,3088.3C1458.82,3088.3 1440.84,3085.38 1423.28,3079.52C1405.71,3073.67 1390.24,3065.09 1376.86,3053.8C1363.47,3042.51 1352.81,3029.13 1344.86,3013.66C1336.92,2998.18 1332.94,2980.41 1332.94,2960.34C1332.94,2928.55 1342.35,2904.09 1361.17,2886.94C1379.99,2869.8 1404.04,2856.62 1433.31,2847.42C1462.59,2838.22 1495,2831.32 1530.54,2826.72C1566.09,2822.12 1600.59,2816.89 1634.05,2811.04C1644.92,2809.37 1657.47,2806.44 1671.69,2802.26C1685.9,2798.07 1695.52,2791.38 1700.54,2782.18L1703.05,2782.18Z" style="fill:#fff;fill-rule:nonzero;"/>
    <path d="M1938.92,2488.61L1938.92,3135.98L2017.96,3135.98L2017.96,2758.35C2018.79,2726.56 2024.02,2697.08 2033.64,2669.89C2043.26,2642.71 2056.64,2619.29 2073.78,2599.64C2090.93,2579.98 2111.84,2564.51 2136.51,2553.22C2161.19,2541.93 2189.42,2536.28 2221.2,2536.28C2252.98,2536.28 2279.54,2541.3 2300.87,2551.34C2322.2,2561.37 2339.13,2575.17 2351.68,2592.74C2364.22,2610.3 2373.01,2631 2378.03,2654.84C2383.04,2678.68 2385.55,2704.4 2385.55,2732L2385.55,3135.98L2464.59,3135.98L2464.59,2719.45C2464.59,2680.98 2460.83,2646.27 2453.3,2615.32C2445.77,2584.37 2432.81,2558.24 2414.41,2536.91C2396.01,2515.58 2371.54,2499.06 2341.01,2487.35C2310.49,2475.64 2272.64,2469.79 2227.47,2469.79C2181.47,2469.79 2139.23,2481.7 2100.76,2505.54C2062.28,2529.38 2035.52,2560.95 2020.47,2600.26L2017.96,2600.26L2017.96,2488.61L1938.92,2488.61Z" style="fill:#fff;fill-rule:nonzero;"/>
    <path d="M2606.36,2686.83L2685.4,2686.83C2687.08,2634.14 2703.8,2595.87 2735.59,2572.04C2767.37,2548.2 2808.35,2536.28 2858.54,2536.28C2881.96,2536.28 2903.91,2538.16 2924.4,2541.93C2944.89,2545.69 2962.88,2552.59 2978.35,2562.63C2993.83,2572.66 3005.95,2586.26 3014.73,2603.4C3023.52,2620.55 3027.91,2642.5 3027.91,2669.27C3027.91,2686.83 3025.61,2701.05 3021.01,2711.92C3016.41,2722.8 3009.93,2731.37 3001.56,2737.64C2993.2,2743.92 2982.74,2748.31 2970.2,2750.82C2957.65,2753.33 2943.01,2755.42 2926.28,2757.09C2883.63,2762.11 2841.6,2767.34 2800.2,2772.77C2758.8,2778.21 2721.58,2787.62 2688.54,2801C2655.5,2814.38 2628.95,2833.83 2608.87,2859.34C2588.8,2884.85 2578.76,2920.19 2578.76,2965.35C2578.76,2997.97 2584.41,3026.2 2595.7,3050.04C2606.99,3073.88 2622.46,3093.53 2642.12,3109.01C2661.77,3124.48 2684.78,3135.77 2711.12,3142.88C2737.47,3149.99 2765.7,3153.54 2795.81,3153.54C2827.59,3153.54 2854.98,3150.62 2877.98,3144.76C2900.98,3138.91 2921.48,3130.54 2939.46,3119.67C2957.44,3108.8 2973.75,3095.2 2988.39,3078.89C3003.03,3062.59 3017.45,3043.97 3031.67,3023.07L3034.18,3023.07C3034.18,3039.79 3035.23,3055.06 3037.32,3068.86C3039.41,3082.66 3043.8,3094.58 3050.49,3104.61C3057.18,3114.65 3066.59,3122.39 3078.72,3127.82C3090.85,3133.26 3106.95,3135.98 3127.02,3135.98C3137.89,3135.98 3146.89,3135.56 3153.99,3134.72C3161.1,3133.89 3169.26,3132.63 3178.46,3130.96L3178.46,3064.47C3170.93,3067.81 3162.57,3069.49 3153.37,3069.49C3122.42,3069.49 3106.95,3053.59 3106.95,3021.81L3106.95,2678.05C3106.95,2634.56 3099.84,2599.22 3085.62,2572.04C3071.4,2544.85 3053,2523.73 3030.42,2508.68C3007.83,2493.62 2982.32,2483.38 2953.89,2477.94C2925.45,2472.51 2897.01,2469.79 2868.57,2469.79C2830.94,2469.79 2796.64,2473.97 2765.7,2482.33C2734.75,2490.7 2707.78,2503.66 2684.78,2521.22C2661.77,2538.79 2643.58,2561.37 2630.2,2588.97C2616.82,2616.58 2608.87,2649.19 2606.36,2686.83ZM3027.91,2782.18L3027.91,2885.06C3027.91,2916.84 3021.84,2945.28 3009.72,2970.37C2997.59,2995.46 2981.28,3016.79 2960.79,3034.36C2940.3,3051.92 2916.25,3065.3 2888.65,3074.5C2861.05,3083.7 2832.19,3088.3 2802.08,3088.3C2783.68,3088.3 2765.7,3085.38 2748.13,3079.52C2730.57,3073.67 2715.09,3065.09 2701.71,3053.8C2688.33,3042.51 2677.66,3029.13 2669.72,3013.66C2661.77,2998.18 2657.8,2980.41 2657.8,2960.34C2657.8,2928.55 2667.21,2904.09 2686.03,2886.94C2704.85,2869.8 2728.89,2856.62 2758.17,2847.42C2787.44,2838.22 2819.85,2831.32 2855.4,2826.72C2890.95,2822.12 2925.45,2816.89 2958.91,2811.04C2969.78,2809.37 2982.32,2806.44 2996.54,2802.26C3010.76,2798.07 3020.38,2791.38 3025.4,2782.18L3027.91,2782.18Z" style="fill:#fff;fill-rule:nonzero;"/>
    <path d="M3606.28,2686.83L3685.32,2686.83C3686.99,2634.14 3703.72,2595.87 3735.5,2572.04C3767.28,2548.2 3808.27,2536.28 3858.45,2536.28C3881.87,2536.28 3903.83,2538.16 3924.32,2541.93C3944.81,2545.69 3962.79,2552.59 3978.27,2562.63C3993.74,2572.66 4005.87,2586.26 4014.65,2603.4C4023.43,2620.55 4027.82,2642.5 4027.82,2669.27C4027.82,2686.83 4025.52,2701.05 4020.92,2711.92C4016.32,2722.8 4009.84,2731.37 4001.48,2737.64C3993.11,2743.92 3982.66,2748.31 3970.11,2750.82C3957.57,2753.33 3942.93,2755.42 3926.2,2757.09C3883.54,2762.11 3841.51,2767.34 3800.11,2772.77C3758.71,2778.21 3721.49,2787.62 3688.45,2801C3655.42,2814.38 3628.86,2833.83 3608.79,2859.34C3588.71,2884.85 3578.68,2920.19 3578.68,2965.35C3578.68,2997.97 3584.32,3026.2 3595.61,3050.04C3606.91,3073.88 3622.38,3093.53 3642.03,3109.01C3661.69,3124.48 3684.69,3135.77 3711.04,3142.88C3737.38,3149.99 3765.61,3153.54 3795.72,3153.54C3827.51,3153.54 3854.9,3150.62 3877.9,3144.76C3900.9,3138.91 3921.39,3130.54 3939.37,3119.67C3957.36,3108.8 3973.67,3095.2 3988.3,3078.89C4002.94,3062.59 4017.37,3043.97 4031.59,3023.07L4034.1,3023.07C4034.1,3039.79 4035.14,3055.06 4037.23,3068.86C4039.32,3082.66 4043.72,3094.58 4050.41,3104.61C4057.1,3114.65 4066.51,3122.39 4078.64,3127.82C4090.76,3133.26 4106.86,3135.98 4126.94,3135.98C4137.81,3135.98 4146.8,3135.56 4153.91,3134.72C4161.02,3133.89 4169.18,3132.63 4178.38,3130.96L4178.38,3064.47C4170.85,3067.81 4162.48,3069.49 4153.28,3069.49C4122.34,3069.49 4106.86,3053.59 4106.86,3021.81L4106.86,2678.05C4106.86,2634.56 4099.75,2599.22 4085.54,2572.04C4071.32,2544.85 4052.91,2523.73 4030.33,2508.68C4007.75,2493.62 3982.24,2483.38 3953.8,2477.94C3925.36,2472.51 3896.93,2469.79 3868.49,2469.79C3830.85,2469.79 3796.56,2473.97 3765.61,2482.33C3734.66,2490.7 3707.69,2503.66 3684.69,2521.22C3661.69,2538.79 3643.5,2561.37 3630.12,2588.97C3616.73,2616.58 3608.79,2649.19 3606.28,2686.83ZM4027.82,2782.18L4027.82,2885.06C4027.82,2916.84 4021.76,2945.28 4009.63,2970.37C3997.5,2995.46 3981.19,3016.79 3960.7,3034.36C3940.21,3051.92 3916.16,3065.3 3888.56,3074.5C3860.96,3083.7 3832.11,3088.3 3802,3088.3C3783.6,3088.3 3765.61,3085.38 3748.05,3079.52C3730.48,3073.67 3715.01,3065.09 3701.63,3053.8C3688.24,3042.51 3677.58,3029.13 3669.64,3013.66C3661.69,2998.18 3657.72,2980.41 3657.72,2960.34C3657.72,2928.55 3667.13,2904.09 3685.95,2886.94C3704.76,2869.8 3728.81,2856.62 3758.09,2847.42C3787.36,2838.22 3819.77,2831.32 3855.32,2826.72C3890.86,2822.12 3925.36,2816.89 3958.82,2811.04C3969.69,2809.37 3982.24,2806.44 3996.46,2802.26C4010.68,2798.07 4020.3,2791.38 4025.31,2782.18L4027.82,2782.18Z" style="fill:#fff;fill-rule:nonzero;"/>
    <path d="M4266.2,2240.2L4266.2,2366.91L4345.24,2366.91L4345.24,2240.2L4266.2,2240.2ZM4266.2,2488.61L4266.2,3135.98L4345.24,3135.98L4345.24,2488.61L4266.2,2488.61Z" style="fill:#fff;fill-rule:nonzero;"/>
    <g>
        <path d="M2436.96,2028.4C2345.74,2140 2220.54,2144.95 2133.2,2101.28C2079.82,2075.08 2041.49,2033.83 2022.08,1977.54C2003.64,1922.71 2004.13,1866.91 2024.51,1812.56C1998.3,1821.29 1973.56,1831.97 1947.84,1837.79C1865.35,1856.72 1787.22,1846.53 1718.8,1792.66C1672.7,1756.27 1647.47,1707.75 1645.05,1648.06C1641.16,1550.53 1689.2,1483.08 1769.75,1435.04C1773.63,1433.1 1777.03,1430.67 1778.97,1429.7C1750.83,1416.12 1720.26,1404.47 1693.09,1387C1641.65,1354.01 1603.8,1309.85 1590.21,1248.22C1569.83,1155.06 1613.51,1062.86 1698.42,1018.22C1750.34,991.043 1805.66,981.823 1863.4,991.043L1870.68,991.043C1859.04,969.692 1844.97,949.797 1835.75,927.961C1797.41,834.795 1818.76,727.071 1900.77,663.018C1974.53,605.274 2085.16,599.937 2172.02,653.799C2192.89,666.9 2212.3,682.428 2231.7,696.015C2235.59,668.356 2236.56,639.727 2243.35,612.553C2266.64,516.475 2320.5,445.629 2419.49,418.456C2516.06,392.253 2611.16,431.072 2669.88,517.445C2698.51,559.662 2714.04,606.73 2719.86,657.196C2721.32,670.297 2722.29,683.399 2724.23,698.441C2748.97,673.209 2777.12,653.314 2808.17,639.242C2919.29,588.291 3049.34,622.743 3112.42,730.467C3157.06,806.65 3145.42,920.683 3086.7,986.19C3085.73,987.646 3084.28,989.102 3081.37,992.984C3092.53,992.013 3100.78,990.558 3109.02,990.072C3204.62,984.249 3284.2,1014.82 3340.49,1094.4C3394.83,1171.07 3384.16,1281.7 3319.14,1349.15C3282.26,1387.49 3239.07,1413.2 3187.63,1426.79C3185.69,1426.79 3184.24,1428.25 3184.72,1428.25C3207.53,1447.17 3233.25,1464.64 3254.6,1486.48C3318.16,1551.5 3334.66,1650.97 3294.87,1727.64C3259.45,1795.58 3200.74,1832.45 3126.01,1843.13C3061.96,1852.35 3000.82,1842.64 2942.1,1814.5C2939.68,1813.53 2937.25,1812.56 2932.88,1811.1C2937.25,1828.57 2942.1,1844.1 2945.5,1860.11C2967.82,1976.09 2907.16,2092.55 2781.97,2120.69C2683.95,2142.53 2582.71,2103.86 2518,2014.42C2496.87,1985.22 2499.07,1984.92 2480.15,1957.16C2477.24,1976.57 2436.96,2028.4 2436.96,2028.4ZM2480.15,1711.63C2533.53,1711.63 2585.45,1701.92 2635.43,1683.97C2804.29,1623.32 2902.8,1466.1 2883.39,1292.86C2870.28,1176.41 2814.97,1082.75 2718.4,1016.76C2621.84,950.282 2514.6,926.991 2398.63,949.797C2293.82,970.177 2207.93,1021.13 2144.85,1107.5C2083.22,1192.9 2062.36,1288.5 2077.88,1392.34C2091.95,1485.02 2135.63,1561.2 2208.9,1619.92C2287.99,1683 2379.22,1711.63 2479.66,1712.11L2480.15,1711.63ZM2500.53,891.083C2510.72,892.053 2522.37,893.024 2533.53,894.479C2544.69,895.935 2556.33,896.906 2567.49,899.332C2604.37,907.096 2604.37,907.096 2620.87,873.614C2654.84,804.709 2673.76,732.893 2662.12,655.255C2652.9,595.084 2629.12,543.163 2581.57,503.373C2515.57,448.541 2414.16,453.879 2358.84,513.564C2295.76,581.012 2280.23,661.563 2292.85,750.362C2300.61,804.224 2325.36,852.749 2348.16,901.273C2349.62,904.184 2355.44,906.61 2358.84,906.125C2370.97,904.184 2383.1,900.302 2395.23,898.847C2415.61,895.935 2436.48,893.509 2458.31,891.083L2458.31,873.614C2460.25,844.499 2461.71,815.385 2464.62,786.755C2465.59,778.021 2465.59,763.464 2479.18,764.434C2491.8,764.919 2491.8,778.992 2492.77,788.211C2496.16,822.178 2498.59,856.63 2501.01,892.538L2500.53,891.083ZM2865.43,1083.24C2905.71,1059.46 2947.92,1037.14 2987.71,1010.45C3038.66,976.486 3073.6,929.902 3082.34,866.821C3096.89,762.493 3024.59,672.723 2917.84,668.841C2845.05,665.93 2787.79,699.897 2740.24,753.274C2696.08,802.283 2682.01,866.821 2651.44,921.168C2679.58,936.696 2706.27,951.253 2733.45,965.325C2736.36,966.781 2743.15,964.354 2746.06,961.443C2762.56,946.886 2777.6,930.387 2795.07,917.286C2809.63,906.125 2826.61,898.361 2843.11,890.112C2846.02,888.656 2852.82,890.112 2854.27,892.538C2856.21,895.935 2856.21,901.758 2854.27,905.64C2852.82,910.007 2848.93,913.404 2845.54,916.801C2820.79,941.063 2796.04,965.81 2773.24,988.617C2803.81,1020.16 2832.92,1050.73 2864.95,1084.21L2865.43,1083.24ZM2093.9,1081.78C2123.5,1049.76 2153.1,1018.7 2182.21,987.646C2158.43,963.869 2133.69,939.607 2109.42,914.86C2107,912.433 2104.09,910.007 2103.6,907.096C2102.63,902.729 2101.17,896.906 2103.6,893.994C2105.54,891.083 2111.85,889.142 2115.73,890.112C2122.04,891.568 2128.83,893.994 2133.69,897.876C2162.8,919.712 2191.43,941.548 2220.06,963.869C2245.78,950.768 2273.92,936.21 2302.07,922.138C2290.9,896.906 2277.8,873.129 2268.58,847.411C2251.11,798.887 2222.97,758.126 2183.18,725.615C2132.72,684.369 2076.91,659.622 2010.43,671.268C1960.45,680.002 1920.18,704.264 1893.98,748.906C1851.76,821.208 1869.71,919.712 1933.28,980.853C1980.35,1025.98 2039.55,1051.21 2093.41,1081.78L2093.9,1081.78ZM2901.83,1515.11C2921.72,1525.78 2944.04,1535.97 2964.42,1548.59C2980.43,1558.78 2994.99,1570.91 3009.06,1583.53C3012.46,1586.92 3011.98,1594.68 3013.43,1600.02C3008.09,1600.99 3001.79,1603.9 2997.42,1602.45C2975.1,1595.66 2952.78,1588.38 2931.43,1580.13C2913.47,1572.85 2896.49,1563.63 2880.47,1555.87C2857.18,1584.98 2834.86,1612.64 2811.57,1641.75C2841.17,1678.63 2874.17,1714.54 2915.41,1742.2C2981.41,1786.84 3053.22,1807.22 3132.32,1788.3C3186.66,1775.2 3229.37,1744.62 3249.74,1690.76C3274.01,1627.68 3252.66,1554.41 3201.71,1509.77C3160.95,1474.35 3113.39,1451.54 3060.99,1440.38C3018.77,1431.16 2976.07,1425.82 2934.82,1418.54C2923.18,1452.51 2912.5,1483.08 2901.34,1514.62L2901.83,1515.11ZM2938.22,1370.99C2993.05,1382.15 3044.97,1391.37 3097.86,1389.43C3157.06,1387 3211.41,1371.96 3258.48,1334.11C3309.91,1292.86 3332.24,1229.78 3315.25,1168.16C3295.84,1097.31 3224.03,1044.9 3143.96,1041.51C3047.4,1037.63 2966.85,1078.87 2890.66,1126.43C2904.25,1161.36 2916.87,1194.36 2929.97,1228.33C2930.94,1228.33 2932.4,1228.33 2933.85,1227.84C2973.16,1217.65 3012.46,1207.46 3053.22,1209.4C3059.53,1209.4 3065.35,1216.2 3071.66,1220.08C3067.29,1224.93 3063.9,1232.21 3058.07,1234.63C3040.61,1241.43 3022.17,1246.77 3003.73,1252.1C2980.92,1258.41 2958.11,1263.75 2938.22,1269.09L2938.22,1371.96L2938.22,1370.99ZM2077.88,1555.38C2043.92,1569.94 2008.98,1584.98 1973.56,1599.05C1963.85,1602.93 1952.69,1601.96 1942.02,1602.93C1941.53,1600.99 1940.56,1599.05 1940.07,1596.63C1966.28,1552.47 2013.83,1535.97 2055.08,1513.65C2044.4,1482.11 2034.21,1452.02 2023.05,1418.54C1977.92,1425.82 1930.85,1430.19 1885.73,1441.83C1818.76,1459.3 1759.56,1490.36 1721.23,1552.47C1686.29,1609.73 1693.57,1692.22 1741.12,1739.29C1794.5,1792.18 1860.01,1802.86 1930.85,1789.27C1989.57,1778.11 2038.09,1747.05 2080.31,1706.78C2103.6,1684.94 2124.47,1660.68 2144.85,1638.84C2121.07,1609.24 2099.23,1582.07 2077.4,1554.89L2077.88,1555.38ZM2028.87,1223.96C2040.52,1193.39 2053.14,1159.42 2065.75,1124.97C2003.64,1085.18 1938.62,1050.24 1862.92,1042.48C1811.97,1037.14 1761.99,1041.99 1716.38,1070.14C1638.25,1118.66 1613.51,1219.59 1667.85,1293.84C1706.67,1346.73 1760.53,1372.44 1823.62,1384.09C1866.32,1391.85 1909.02,1389.43 1951.72,1383.61C1974.04,1380.69 1996.36,1375.84 2018.68,1372.44C2018.68,1343.82 2016.26,1316.64 2019.17,1290.44C2022.08,1263.75 2021.11,1269.57 2000.24,1263.26C1966.76,1253.56 1933.28,1244.83 1900.28,1234.15C1894.46,1232.21 1890.58,1225.41 1885.73,1220.56C1892.04,1216.68 1898.34,1212.31 1905.14,1208.92C1907.08,1207.95 1909.99,1208.92 1912.41,1208.92C1950.75,1214.26 1989.57,1219.59 2028.39,1224.93L2028.87,1223.96ZM2661.14,1733.95C2672.79,1768.89 2684.92,1804.8 2695.6,1841.19C2698.51,1850.41 2700.93,1864.48 2688.32,1868.85C2675.22,1873.22 2670.37,1860.11 2666,1850.89C2650.95,1818.87 2636.88,1786.84 2621.84,1754.82C2619.9,1750.93 2614.56,1746.08 2611.65,1746.08C2576.23,1751.9 2540.8,1758.7 2503.44,1765.49C2503.44,1804.31 2507.81,1844.59 2518,1883.89C2535.95,1950.37 2568.95,2007.14 2627.18,2046.45C2694.14,2091.09 2783.43,2084.78 2840.68,2031.89C2888.24,1987.73 2897.46,1931.44 2890.18,1871.76C2879.99,1788.78 2824.67,1731.52 2773.24,1676.21C2733.93,1696.59 2696.57,1716 2660.66,1734.43L2661.14,1733.95ZM2183.18,1671.84C2166.2,1691.25 2146.79,1712.6 2128.83,1734.43C2085.16,1787.33 2060.9,1846.04 2066.24,1917.37C2074,2018.3 2166.68,2094.97 2276.83,2068.77C2339.43,2053.72 2381.16,2011.51 2411.73,1957.16C2433.57,1917.86 2441.82,1874.18 2446.67,1830.03C2449.09,1808.19 2449.58,1785.87 2451.03,1765.98C2413.19,1758.21 2378.25,1750.93 2343.31,1744.14C2340.88,1744.14 2335.55,1748.51 2334.09,1751.9C2323.42,1774.71 2314.2,1798.49 2303.52,1821.29C2296.73,1835.37 2288.96,1849.44 2280.23,1862.05C2277.32,1865.94 2269.55,1869.33 2264.7,1868.36C2261.3,1867.88 2257.91,1860.11 2257.42,1854.78C2256.45,1847.98 2257.42,1840.22 2259.36,1833.42C2271.01,1798.97 2283.63,1764.52 2294.79,1731.52C2259.36,1712.6 2222.97,1692.7 2183.67,1671.35L2183.18,1671.84Z" style="fill:#fff;fill-rule:nonzero;"/>
        <circle cx="2305.79" cy="1158.08" r="52.494" style="fill:#fff;"/>
        <circle cx="2655.91" cy="1158.08" r="52.494" style="fill:#fff;"/>
        <path d="M2799.44,1351.62C2800.13,1436.57 2694.81,1624.3 2479.78,1621.18C2267.41,1625.09 2161.19,1472.79 2161.19,1351.62C2182.36,1295.42 2364.54,1280.34 2479.78,1280.34C2595.01,1280.34 2777.84,1317.94 2799.44,1351.62Z" style="fill:none;stroke:#fff;stroke-width:54.17px;"/>
    </g>
</svg>
