<?xml version="1.0" encoding="UTF-8" standalone="no"?>
<!DOCTYPE svg PUBLIC "-//W3C//DTD SVG 1.1//EN" "http://www.w3.org/Graphics/SVG/1.1/DTD/svg11.dtd">
<svg width="100%" height="100%" viewBox="0 0 4961 3508" version="1.1" xmlns="http://www.w3.org/2000/svg" xmlns:xlink="http://www.w3.org/1999/xlink" xml:space="preserve" xmlns:serif="http://www.serif.com/" style="fill-rule:evenodd;clip-rule:evenodd;stroke-linecap:round;stroke-linejoin:round;stroke-miterlimit:1.5;">
    <path d="M614.059,2395.2L614.059,3290.98L693.099,3290.98L693.099,2913.35C693.935,2881.56 699.162,2852.08 708.781,2824.89C718.4,2797.71 731.782,2774.29 748.928,2754.64C766.074,2734.98 786.984,2719.51 811.658,2708.22C836.332,2696.93 864.56,2691.28 896.344,2691.28C928.127,2691.28 954.683,2696.3 976.011,2706.34C997.339,2716.37 1014.28,2730.17 1026.82,2747.74C1039.37,2765.3 1048.15,2786 1053.17,2809.84C1058.19,2833.68 1060.7,2859.4 1060.7,2887L1060.7,3290.98L1139.74,3290.98L1139.74,2874.45C1139.74,2835.98 1135.97,2801.27 1128.44,2770.32C1120.92,2739.37 1107.95,2713.24 1089.55,2691.91C1071.15,2670.58 1046.69,2654.06 1016.16,2642.35C985.629,2630.64 947.782,2624.79 902.617,2624.79C856.615,2624.79 814.376,2636.7 775.902,2660.54C737.428,2684.38 710.663,2715.95 695.608,2755.26L693.099,2755.26L693.099,2395.2L614.059,2395.2Z" style="fill:#fff;fill-rule:nonzero;"/>
    <path d="M1281.51,2841.83L1360.55,2841.83C1362.22,2789.14 1378.95,2750.87 1410.73,2727.04C1442.51,2703.2 1483.5,2691.28 1533.68,2691.28C1557.1,2691.28 1579.06,2693.16 1599.55,2696.93C1620.04,2700.69 1638.02,2707.59 1653.49,2717.63C1668.97,2727.66 1681.1,2741.26 1689.88,2758.4C1698.66,2775.55 1703.05,2797.5 1703.05,2824.27C1703.05,2841.83 1700.75,2856.05 1696.15,2866.92C1691.55,2877.8 1685.07,2886.37 1676.7,2892.64C1668.34,2898.92 1657.88,2903.31 1645.34,2905.82C1632.79,2908.33 1618.16,2910.42 1601.43,2912.09C1558.77,2917.11 1516.74,2922.34 1475.34,2927.77C1433.94,2933.21 1396.72,2942.62 1363.68,2956C1330.64,2969.38 1304.09,2988.83 1284.02,3014.34C1263.94,3039.85 1253.9,3075.19 1253.9,3120.35C1253.9,3152.97 1259.55,3181.2 1270.84,3205.04C1282.13,3228.88 1297.61,3248.53 1317.26,3264.01C1336.92,3279.48 1359.92,3290.77 1386.27,3297.88C1412.61,3304.99 1440.84,3308.54 1470.95,3308.54C1502.73,3308.54 1530.12,3305.62 1553.13,3299.76C1576.13,3293.91 1596.62,3285.54 1614.6,3274.67C1632.58,3263.8 1648.89,3250.2 1663.53,3233.89C1678.17,3217.59 1692.6,3198.97 1706.82,3178.07L1709.32,3178.07C1709.32,3194.79 1710.37,3210.06 1712.46,3223.86C1714.55,3237.66 1718.94,3249.58 1725.63,3259.61C1732.33,3269.65 1741.73,3277.39 1753.86,3282.82C1765.99,3288.26 1782.09,3290.98 1802.16,3290.98C1813.04,3290.98 1822.03,3290.56 1829.14,3289.72C1836.25,3288.89 1844.4,3287.63 1853.6,3285.96L1853.6,3219.47C1846.08,3222.81 1837.71,3224.49 1828.51,3224.49C1797.56,3224.49 1782.09,3208.59 1782.09,3176.81L1782.09,2833.05C1782.09,2789.56 1774.98,2754.22 1760.76,2727.04C1746.54,2699.85 1728.14,2678.73 1705.56,2663.68C1682.98,2648.62 1657.47,2638.38 1629.03,2632.94C1600.59,2627.51 1572.15,2624.79 1543.72,2624.79C1506.08,2624.79 1471.79,2628.97 1440.84,2637.33C1409.89,2645.7 1382.92,2658.66 1359.92,2676.22C1336.92,2693.79 1318.73,2716.37 1305.34,2743.97C1291.96,2771.58 1284.02,2804.19 1281.51,2841.83ZM1703.05,2937.18L1703.05,3040.06C1703.05,3071.84 1696.99,3100.28 1684.86,3125.37C1672.73,3150.46 1656.42,3171.79 1635.93,3189.36C1615.44,3206.92 1591.39,3220.3 1563.79,3229.5C1536.19,3238.7 1507.33,3243.3 1477.22,3243.3C1458.82,3243.3 1440.84,3240.38 1423.28,3234.52C1405.71,3228.67 1390.24,3220.09 1376.86,3208.8C1363.47,3197.51 1352.81,3184.13 1344.86,3168.66C1336.92,3153.18 1332.94,3135.41 1332.94,3115.34C1332.94,3083.55 1342.35,3059.09 1361.17,3041.94C1379.99,3024.8 1404.04,3011.62 1433.31,3002.42C1462.59,2993.22 1495,2986.32 1530.54,2981.72C1566.09,2977.12 1600.59,2971.89 1634.05,2966.04C1644.92,2964.37 1657.47,2961.44 1671.69,2957.26C1685.9,2953.07 1695.52,2946.38 1700.54,2937.18L1703.05,2937.18Z" style="fill:#fff;fill-rule:nonzero;"/>
    <path d="M1938.92,2643.61L1938.92,3290.98L2017.96,3290.98L2017.96,2913.35C2018.79,2881.56 2024.02,2852.08 2033.64,2824.89C2043.26,2797.71 2056.64,2774.29 2073.78,2754.64C2090.93,2734.98 2111.84,2719.51 2136.51,2708.22C2161.19,2696.93 2189.42,2691.28 2221.2,2691.28C2252.98,2691.28 2279.54,2696.3 2300.87,2706.34C2322.2,2716.37 2339.13,2730.17 2351.68,2747.74C2364.22,2765.3 2373.01,2786 2378.03,2809.84C2383.04,2833.68 2385.55,2859.4 2385.55,2887L2385.55,3290.98L2464.59,3290.98L2464.59,2874.45C2464.59,2835.98 2460.83,2801.27 2453.3,2770.32C2445.77,2739.37 2432.81,2713.24 2414.41,2691.91C2396.01,2670.58 2371.54,2654.06 2341.01,2642.35C2310.49,2630.64 2272.64,2624.79 2227.47,2624.79C2181.47,2624.79 2139.23,2636.7 2100.76,2660.54C2062.28,2684.38 2035.52,2715.95 2020.47,2755.26L2017.96,2755.26L2017.96,2643.61L1938.92,2643.61Z" style="fill:#fff;fill-rule:nonzero;"/>
    <path d="M2606.36,2841.83L2685.4,2841.83C2687.08,2789.14 2703.8,2750.87 2735.59,2727.04C2767.37,2703.2 2808.35,2691.28 2858.54,2691.28C2881.96,2691.28 2903.91,2693.16 2924.4,2696.93C2944.89,2700.69 2962.88,2707.59 2978.35,2717.63C2993.83,2727.66 3005.95,2741.26 3014.73,2758.4C3023.52,2775.55 3027.91,2797.5 3027.91,2824.27C3027.91,2841.83 3025.61,2856.05 3021.01,2866.92C3016.41,2877.8 3009.93,2886.37 3001.56,2892.64C2993.2,2898.92 2982.74,2903.31 2970.2,2905.82C2957.65,2908.33 2943.01,2910.42 2926.28,2912.09C2883.63,2917.11 2841.6,2922.34 2800.2,2927.77C2758.8,2933.21 2721.58,2942.62 2688.54,2956C2655.5,2969.38 2628.95,2988.83 2608.87,3014.34C2588.8,3039.85 2578.76,3075.19 2578.76,3120.35C2578.76,3152.97 2584.41,3181.2 2595.7,3205.04C2606.99,3228.88 2622.46,3248.53 2642.12,3264.01C2661.77,3279.48 2684.78,3290.77 2711.12,3297.88C2737.47,3304.99 2765.7,3308.54 2795.81,3308.54C2827.59,3308.54 2854.98,3305.62 2877.98,3299.76C2900.98,3293.91 2921.48,3285.54 2939.46,3274.67C2957.44,3263.8 2973.75,3250.2 2988.39,3233.89C3003.03,3217.59 3017.45,3198.97 3031.67,3178.07L3034.18,3178.07C3034.18,3194.79 3035.23,3210.06 3037.32,3223.86C3039.41,3237.66 3043.8,3249.58 3050.49,3259.61C3057.18,3269.65 3066.59,3277.39 3078.72,3282.82C3090.85,3288.26 3106.95,3290.98 3127.02,3290.98C3137.89,3290.98 3146.89,3290.56 3153.99,3289.72C3161.1,3288.89 3169.26,3287.63 3178.46,3285.96L3178.46,3219.47C3170.93,3222.81 3162.57,3224.49 3153.37,3224.49C3122.42,3224.49 3106.95,3208.59 3106.95,3176.81L3106.95,2833.05C3106.95,2789.56 3099.84,2754.22 3085.62,2727.04C3071.4,2699.85 3053,2678.73 3030.42,2663.68C3007.83,2648.62 2982.32,2638.38 2953.89,2632.94C2925.45,2627.51 2897.01,2624.79 2868.57,2624.79C2830.94,2624.79 2796.64,2628.97 2765.7,2637.33C2734.75,2645.7 2707.78,2658.66 2684.78,2676.22C2661.77,2693.79 2643.58,2716.37 2630.2,2743.97C2616.82,2771.58 2608.87,2804.19 2606.36,2841.83ZM3027.91,2937.18L3027.91,3040.06C3027.91,3071.84 3021.84,3100.28 3009.72,3125.37C2997.59,3150.46 2981.28,3171.79 2960.79,3189.36C2940.3,3206.92 2916.25,3220.3 2888.65,3229.5C2861.05,3238.7 2832.19,3243.3 2802.08,3243.3C2783.68,3243.3 2765.7,3240.38 2748.13,3234.52C2730.57,3228.67 2715.09,3220.09 2701.71,3208.8C2688.33,3197.51 2677.66,3184.13 2669.72,3168.66C2661.77,3153.18 2657.8,3135.41 2657.8,3115.34C2657.8,3083.55 2667.21,3059.09 2686.03,3041.94C2704.85,3024.8 2728.89,3011.62 2758.17,3002.42C2787.44,2993.22 2819.85,2986.32 2855.4,2981.72C2890.95,2977.12 2925.45,2971.89 2958.91,2966.04C2969.78,2964.37 2982.32,2961.44 2996.54,2957.26C3010.76,2953.07 3020.38,2946.38 3025.4,2937.18L3027.91,2937.18Z" style="fill:#fff;fill-rule:nonzero;"/>
    <path d="M3606.28,2841.83L3685.32,2841.83C3686.99,2789.14 3703.72,2750.87 3735.5,2727.04C3767.28,2703.2 3808.27,2691.28 3858.45,2691.28C3881.87,2691.28 3903.83,2693.16 3924.32,2696.93C3944.81,2700.69 3962.79,2707.59 3978.27,2717.63C3993.74,2727.66 4005.87,2741.26 4014.65,2758.4C4023.43,2775.55 4027.82,2797.5 4027.82,2824.27C4027.82,2841.83 4025.52,2856.05 4020.92,2866.92C4016.32,2877.8 4009.84,2886.37 4001.48,2892.64C3993.11,2898.92 3982.66,2903.31 3970.11,2905.82C3957.57,2908.33 3942.93,2910.42 3926.2,2912.09C3883.54,2917.11 3841.51,2922.34 3800.11,2927.77C3758.71,2933.21 3721.49,2942.62 3688.45,2956C3655.42,2969.38 3628.86,2988.83 3608.79,3014.34C3588.71,3039.85 3578.68,3075.19 3578.68,3120.35C3578.68,3152.97 3584.32,3181.2 3595.61,3205.04C3606.91,3228.88 3622.38,3248.53 3642.03,3264.01C3661.69,3279.48 3684.69,3290.77 3711.04,3297.88C3737.38,3304.99 3765.61,3308.54 3795.72,3308.54C3827.51,3308.54 3854.9,3305.62 3877.9,3299.76C3900.9,3293.91 3921.39,3285.54 3939.37,3274.67C3957.36,3263.8 3973.67,3250.2 3988.3,3233.89C4002.94,3217.59 4017.37,3198.97 4031.59,3178.07L4034.1,3178.07C4034.1,3194.79 4035.14,3210.06 4037.23,3223.86C4039.32,3237.66 4043.72,3249.58 4050.41,3259.61C4057.1,3269.65 4066.51,3277.39 4078.64,3282.82C4090.76,3288.26 4106.86,3290.98 4126.94,3290.98C4137.81,3290.98 4146.8,3290.56 4153.91,3289.72C4161.02,3288.89 4169.18,3287.63 4178.38,3285.96L4178.38,3219.47C4170.85,3222.81 4162.48,3224.49 4153.28,3224.49C4122.34,3224.49 4106.86,3208.59 4106.86,3176.81L4106.86,2833.05C4106.86,2789.56 4099.75,2754.22 4085.54,2727.04C4071.32,2699.85 4052.91,2678.73 4030.33,2663.68C4007.75,2648.62 3982.24,2638.38 3953.8,2632.94C3925.36,2627.51 3896.93,2624.79 3868.49,2624.79C3830.85,2624.79 3796.56,2628.97 3765.61,2637.33C3734.66,2645.7 3707.69,2658.66 3684.69,2676.22C3661.69,2693.79 3643.5,2716.37 3630.12,2743.97C3616.73,2771.58 3608.79,2804.19 3606.28,2841.83ZM4027.82,2937.18L4027.82,3040.06C4027.82,3071.84 4021.76,3100.28 4009.63,3125.37C3997.5,3150.46 3981.19,3171.79 3960.7,3189.36C3940.21,3206.92 3916.16,3220.3 3888.56,3229.5C3860.96,3238.7 3832.11,3243.3 3802,3243.3C3783.6,3243.3 3765.61,3240.38 3748.05,3234.52C3730.48,3228.67 3715.01,3220.09 3701.63,3208.8C3688.24,3197.51 3677.58,3184.13 3669.64,3168.66C3661.69,3153.18 3657.72,3135.41 3657.72,3115.34C3657.72,3083.55 3667.13,3059.09 3685.95,3041.94C3704.76,3024.8 3728.81,3011.62 3758.09,3002.42C3787.36,2993.22 3819.77,2986.32 3855.32,2981.72C3890.86,2977.12 3925.36,2971.89 3958.82,2966.04C3969.69,2964.37 3982.24,2961.44 3996.46,2957.26C4010.68,2953.07 4020.3,2946.38 4025.31,2937.18L4027.82,2937.18Z" style="fill:#fff;fill-rule:nonzero;"/>
    <path d="M4266.2,2395.2L4266.2,2521.91L4345.24,2521.91L4345.24,2395.2L4266.2,2395.2ZM4266.2,2643.61L4266.2,3290.98L4345.24,3290.98L4345.24,2643.61L4266.2,2643.61Z" style="fill:#fff;fill-rule:nonzero;"/>
    <g>
        <path d="M2425.33,2197.83C2311.01,2337.68 2154.14,2343.88 2044.69,2289.16C1977.81,2256.32 1929.78,2204.64 1905.45,2134.11C1882.35,2065.4 1882.96,1995.48 1908.49,1927.38C1875.66,1938.32 1844.65,1951.7 1812.42,1958.99C1709.06,1982.71 1611.16,1969.94 1525.43,1902.45C1467.67,1856.84 1436.05,1796.04 1433.01,1721.25C1428.14,1599.04 1488.34,1514.52 1589.28,1454.32C1594.14,1451.89 1598.39,1448.85 1600.83,1447.63C1565.56,1430.61 1527.26,1416.02 1493.2,1394.13C1428.75,1352.78 1381.33,1297.45 1364.3,1220.23C1338.76,1103.49 1393.49,987.959 1499.89,932.019C1564.95,897.969 1634.27,886.417 1706.63,897.969L1715.75,897.969C1701.15,871.216 1683.52,846.286 1671.97,818.925C1623.93,702.181 1650.69,567.197 1753.44,486.937C1845.87,414.58 1984.5,407.892 2093.34,475.384C2119.48,491.801 2143.8,511.258 2168.13,528.283C2172.99,493.625 2174.21,457.751 2182.72,423.701C2211.9,303.31 2279.4,214.536 2403.44,180.486C2524.43,147.652 2643.61,196.295 2717.18,304.526C2753.06,357.425 2772.51,416.404 2779.81,479.64C2781.63,496.057 2782.85,512.474 2785.28,531.323C2816.29,499.705 2851.56,474.776 2890.47,457.143C3029.71,393.299 3192.67,436.47 3271.71,571.454C3327.65,666.915 3313.06,809.804 3239.49,891.889C3238.27,893.713 3236.45,895.537 3232.8,900.401C3246.78,899.185 3257.12,897.361 3267.46,896.753C3387.24,889.457 3486.96,927.763 3557.49,1027.48C3625.59,1123.55 3612.21,1262.18 3530.74,1346.7C3484.53,1394.74 3430.41,1426.96 3365.96,1443.99C3363.53,1443.99 3361.7,1445.81 3362.31,1445.81C3390.89,1469.52 3423.11,1491.41 3449.87,1518.78C3529.52,1600.25 3550.19,1724.9 3500.33,1820.97C3455.95,1906.09 3382.38,1952.31 3288.74,1965.68C3208.48,1977.23 3131.86,1965.07 3058.29,1929.81C3055.25,1928.59 3052.21,1927.38 3046.74,1925.55C3052.21,1947.44 3058.29,1966.9 3062.55,1986.96C3090.52,2132.28 3014.51,2278.21 2857.64,2313.48C2734.82,2340.84 2607.95,2292.39 2526.87,2180.32C2500.39,2143.73 2503.15,2143.35 2479.44,2108.57C2475.79,2132.89 2425.33,2197.83 2425.33,2197.83ZM2479.44,1800.9C2546.32,1800.9 2611.38,1788.74 2674.01,1766.25C2885.61,1690.24 3009.04,1493.24 2984.72,1276.17C2968.3,1130.24 2898.99,1012.89 2777.99,930.195C2656.99,846.894 2522.61,817.708 2377.29,846.286C2245.95,871.824 2138.33,935.668 2059.29,1043.9C1982.07,1150.91 1955.92,1270.7 1975.38,1400.82C1993.01,1516.95 2047.73,1612.41 2139.55,1685.99C2238.66,1765.03 2352.97,1800.9 2478.83,1801.51L2479.44,1800.9ZM2504.98,772.714C2517.75,773.93 2532.34,775.146 2546.32,776.97C2560.31,778.794 2574.9,780.01 2588.89,783.05C2635.1,792.779 2635.1,792.779 2655.77,750.824C2698.33,664.483 2722.05,574.494 2707.45,477.208C2695.9,401.811 2666.11,336.752 2606.52,286.893C2523.83,218.184 2396.75,224.873 2327.43,299.661C2248.39,384.178 2228.93,485.112 2244.74,596.383C2254.47,663.875 2285.48,724.679 2314.05,785.482C2315.88,789.131 2323.18,792.171 2327.43,791.563C2342.63,789.131 2357.83,784.266 2373.03,782.442C2398.57,778.794 2424.72,775.754 2452.08,772.714L2452.08,750.824C2454.51,714.342 2456.34,677.86 2459.98,641.986C2461.2,631.041 2461.2,612.8 2478.22,614.016C2494.03,614.624 2494.03,632.257 2495.25,643.81C2499.51,686.373 2502.55,729.543 2505.59,774.538L2504.98,772.714ZM2962.22,1013.5C3012.69,983.702 3065.59,955.733 3115.45,922.291C3179.29,879.728 3223.07,821.357 3234.01,742.312C3252.26,611.584 3161.66,499.097 3027.89,494.233C2936.68,490.585 2864.93,533.147 2805.35,600.031C2750.02,661.443 2732.38,742.312 2694.08,810.412C2729.34,829.869 2762.78,848.11 2796.84,865.743C2800.48,867.567 2809,864.527 2812.64,860.879C2833.32,842.638 2852.17,821.965 2874.06,805.548C2892.3,791.563 2913.58,781.834 2934.25,771.498C2937.9,769.674 2946.41,771.498 2948.24,774.538C2950.67,778.794 2950.67,786.091 2948.24,790.955C2946.41,796.427 2941.55,800.683 2937.29,804.94C2906.28,835.341 2875.27,866.351 2846.69,894.929C2885,934.451 2921.48,972.758 2961.61,1014.71L2962.22,1013.5ZM1995.44,1011.67C2032.53,971.542 2069.62,932.627 2106.11,893.713C2076.31,863.919 2045.3,833.517 2014.9,802.508C2011.86,799.467 2008.21,796.427 2007.6,792.779C2006.39,787.307 2004.56,780.01 2007.6,776.362C2010.04,772.714 2017.94,770.282 2022.81,771.498C2030.71,773.322 2039.22,776.362 2045.3,781.226C2081.78,808.588 2117.66,835.95 2153.53,863.919C2185.76,847.502 2221.03,829.261 2256.29,811.628C2242.31,780.01 2225.89,750.216 2214.34,717.99C2192.45,657.187 2157.18,606.112 2107.32,565.373C2044.09,513.69 1974.16,482.68 1890.86,497.273C1828.23,508.218 1777.77,538.62 1744.93,594.559C1692.03,685.156 1714.53,808.588 1794.18,885.2C1853.16,941.748 1927.34,973.366 1994.84,1011.67L1995.44,1011.67ZM3007.82,1554.65C3032.75,1568.03 3060.72,1580.79 3086.26,1596.6C3106.33,1609.37 3124.57,1624.57 3142.2,1640.38C3146.46,1644.64 3145.85,1654.37 3147.67,1661.06C3140.98,1662.27 3133.08,1665.92 3127.61,1664.1C3099.64,1655.58 3071.67,1646.46 3044.91,1636.13C3022.42,1627.01 3001.14,1615.45 2981.07,1605.72C2951.89,1642.21 2923.91,1676.86 2894.73,1713.35C2931.82,1759.56 2973.17,1804.55 3024.85,1839.21C3107.54,1895.15 3197.53,1920.69 3296.64,1896.97C3364.74,1880.56 3418.25,1842.25 3443.79,1774.76C3474.19,1695.71 3447.43,1603.9 3383.59,1547.96C3332.52,1503.57 3272.93,1475 3207.26,1461.01C3154.36,1449.46 3100.85,1442.77 3049.17,1433.65C3034.58,1476.21 3021.2,1514.52 3007.22,1554.04L3007.82,1554.65ZM3053.43,1374.06C3122.14,1388.05 3187.2,1399.6 3253.47,1397.17C3327.65,1394.13 3395.75,1375.28 3454.73,1327.85C3519.18,1276.17 3547.15,1197.12 3525.87,1119.9C3501.55,1031.13 3411.56,965.461 3311.23,961.205C3190.24,956.341 3089.3,1008.02 2993.84,1067.61C3010.86,1111.39 3026.67,1152.74 3043.09,1195.3C3044.31,1195.3 3046.13,1195.3 3047.95,1194.69C3097.2,1181.92 3146.46,1169.15 3197.53,1171.59C3205.44,1171.59 3212.73,1180.1 3220.64,1184.96C3215.16,1191.04 3210.91,1200.16 3203.61,1203.2C3181.72,1211.72 3158.62,1218.4 3135.51,1225.09C3106.93,1233 3078.36,1239.69 3053.43,1246.37L3053.43,1375.28L3053.43,1374.06ZM1975.38,1605.12C1932.82,1623.36 1889.04,1642.21 1844.65,1659.84C1832.49,1664.7 1818.51,1663.49 1805.13,1664.7C1804.52,1662.27 1803.3,1659.84 1802.7,1656.8C1835.53,1601.47 1895.12,1580.79 1946.8,1552.83C1933.42,1513.3 1920.65,1475.6 1906.67,1433.65C1850.12,1442.77 1791.14,1448.24 1734.6,1462.84C1650.69,1484.73 1576.51,1523.64 1528.47,1601.47C1484.69,1673.22 1493.81,1776.58 1553.4,1835.56C1620.29,1901.84 1702.37,1915.21 1791.14,1898.19C1864.72,1884.2 1925.52,1845.29 1978.42,1794.82C2007.6,1767.46 2033.75,1737.06 2059.29,1709.7C2029.49,1672.61 2002.13,1638.56 1974.77,1604.51L1975.38,1605.12ZM1913.97,1189.83C1928.56,1151.52 1944.37,1108.96 1960.18,1065.79C1882.35,1015.93 1800.87,972.15 1706.02,962.421C1642.17,955.733 1579.55,961.813 1522.39,997.079C1424.5,1057.88 1393.49,1184.35 1461.59,1277.38C1510.23,1343.66 1577.72,1375.89 1656.77,1390.48C1710.27,1400.21 1763.78,1397.17 1817.29,1389.87C1845.26,1386.22 1873.23,1380.14 1901.2,1375.89C1901.2,1340.01 1898.16,1305.96 1901.81,1273.13C1905.45,1239.69 1904.24,1246.98 1878.09,1239.08C1836.14,1226.92 1794.18,1215.97 1752.84,1202.6C1745.54,1200.16 1740.68,1191.65 1734.6,1185.57C1742.5,1180.71 1750.4,1175.23 1758.92,1170.98C1761.35,1169.76 1765,1170.98 1768.04,1170.98C1816.07,1177.67 1864.72,1184.35 1913.36,1191.04L1913.97,1189.83ZM2706.24,1828.87C2720.83,1872.65 2736.03,1917.65 2749.41,1963.25C2753.06,1974.8 2756.1,1992.43 2740.29,1997.91C2723.87,2003.38 2717.79,1986.96 2712.32,1975.41C2693.47,1935.28 2675.84,1895.15 2656.99,1855.02C2654.55,1850.15 2647.87,1844.07 2644.22,1844.07C2599.83,1851.37 2555.45,1859.88 2508.63,1868.4C2508.63,1917.04 2514.1,1967.51 2526.87,2016.76C2549.36,2100.06 2590.71,2171.2 2663.68,2220.45C2747.58,2276.39 2859.46,2268.48 2931.21,2202.21C2990.8,2146.88 3002.35,2076.34 2993.23,2001.56C2980.46,1897.58 2911.15,1825.83 2846.69,1756.52C2797.44,1782.05 2750.62,1806.38 2705.63,1829.48L2706.24,1828.87ZM2107.32,1751.05C2086.04,1775.37 2061.72,1802.12 2039.22,1829.48C1984.5,1895.76 1954.1,1969.33 1960.79,2058.71C1970.51,2185.18 2086.65,2281.25 2224.67,2248.42C2303.11,2229.57 2355.4,2176.67 2393.71,2108.57C2421.07,2059.32 2431.41,2004.6 2437.49,1949.26C2440.53,1921.9 2441.13,1893.93 2442.96,1869C2395.53,1859.28 2351.75,1850.15 2307.97,1841.64C2304.93,1841.64 2298.24,1847.11 2296.42,1851.37C2283.04,1879.95 2271.49,1909.74 2258.12,1938.32C2249.6,1955.95 2239.87,1973.59 2228.93,1989.39C2225.28,1994.26 2215.55,1998.52 2209.47,1997.3C2205.22,1996.69 2200.96,1986.96 2200.35,1980.27C2199.14,1971.76 2200.35,1962.03 2202.78,1953.52C2217.38,1910.35 2233.18,1867.18 2247.17,1825.83C2202.78,1802.12 2157.18,1777.19 2107.93,1750.44L2107.32,1751.05Z" style="fill:#fff;fill-rule:nonzero;"/>
        <circle cx="2260.96" cy="1107.28" r="65.778" style="fill:#fff;"/>
        <circle cx="2699.68" cy="1107.28" r="65.778" style="fill:#fff;"/>
        <path d="M2879.53,1349.79C2880.39,1456.24 2748.43,1691.47 2478.97,1687.56C2212.87,1692.47 2079.76,1501.63 2079.76,1349.79C2106.3,1279.37 2334.58,1260.47 2478.97,1260.47C2623.37,1260.47 2852.46,1307.59 2879.53,1349.79Z" style="fill:none;stroke:#fff;stroke-width:54.17px;"/>
    </g>
</svg>
