<svg xmlns="http://www.w3.org/2000/svg" width="32" height="32" viewBox="0 0 2550 2550" fill="none" clip-rule="evenodd"
  fill-rule="evenodd" stroke-linecap="round" stroke-linejoin="round" stroke-miterlimit="1.5">
  <style>
    .badge {
      fill: #fafafa;
      stroke: #fafafa;
    }

    .icon {
      fill: #0A0A0A;
      stroke: #0A0A0A;
    }

    @media (prefers-color-scheme: dark) {
      .icon {
        fill: #fafafa;
        stroke: #fafafa;
      }

      .badge {
        fill: #0A0A0A;
        stroke: #0A0A0A;
      }
    }
  </style>

  <rect class="badge" x="30" y="30" width="2490" height="2490" rx="255" />

  <g>
    <path class="icon"
      d="m721.9 499.98c-18.8 23-44.6 24.02-62.6 15.02-11-5.4-18.9-13.9-22.9-25.5-3.8-11.3-3.7-22.8.5-34-5.4 1.8-10.5 4-15.8 5.2-17 3.9-33.1 1.8-47.2-9.3-9.5-7.5-14.7-17.5-15.2-29.8-.8-20.1 9.1-34 25.7-43.9.8-.4 1.5-.9 1.9-1.1-5.8-2.8-12.1-5.2-17.7-8.8-10.6-6.8-18.4-15.9-21.2-28.6-4.2-19.2 4.8-38.2 22.3-47.4 10.7-5.6 22.1-7.5 34-5.6h1.5c-2.4-4.4-5.3-8.5-7.2-13-7.9-19.2-3.5-41.4 13.4-54.6 15.2-11.9 38-13 55.9-1.9 4.3 2.7 8.3 5.9 12.3 8.7.8-5.7 1-11.6 2.4-17.2 4.8-19.8 15.9-34.4 36.3-40 19.9-5.4 39.5 2.6 51.6 20.4 5.9 8.7 9.1 18.4 10.3 28.8.3 2.7.5 5.4.9 8.5 5.1-5.2 10.9-9.3 17.3-12.2 22.9-10.5 49.7-3.4 62.7 18.8 9.2 15.7 6.8 39.2-5.3 52.7-.2.3-.5.6-1.1 1.4 2.3-.2 4-.5 5.7-.6 19.7-1.2 36.1 5.1 47.7 21.5 11.2 15.8 9 38.6-4.4 52.5-7.6 7.9-16.5 13.2-27.1 16-.4 0-.7.3-.6.3 4.7 3.9 10 7.5 14.4 12 13.1 13.4 16.5 33.9 8.3 49.7-7.3 14-19.4 21.6-34.8 23.8-13.2 1.9-25.8-.1-37.9-5.9-.5-.2-1-.4-1.9-.7.9 3.6 1.9 6.8 2.6 10.1 4.6 23.9-7.9 47.9-33.7 53.7-20.2 4.5-41.064-3.468-54.4-21.9-4.354-6.017-3.9-6.08-7.8-11.8-.6 4-8.9 14.68-8.9 14.68zm8.9-65.28c11 0 21.7-2 32-5.7 34.8-12.5 55.1-44.9 51.1-80.6-2.7-24-14.1-43.3-34-56.9-19.9-13.7-42-18.5-65.9-13.8-21.6 4.2-39.3 14.7-52.3 32.5-12.7 17.6-17 37.3-13.8 58.7 2.9 19.1 11.9 34.8 27 46.9 16.3 13 35.1 18.9 55.8 19zm4.2-169.1c2.1.2 4.5.4 6.8.7s4.7.5 7 1c7.6 1.6 7.6 1.6 11-5.3 7-14.2 10.9-29 8.5-45-1.9-12.4-6.8-23.1-16.6-31.3-13.6-11.3-34.5-10.2-45.9 2.1-13 13.9-16.2 30.5-13.6 48.8 1.6 11.1 6.7 21.1 11.4 31.1.3.6 1.5 1.1 2.2 1 2.5-.4 5-1.2 7.5-1.5 4.2-.6 8.5-1.1 13-1.6v-3.6c.4-6 .7-12 1.3-17.9.2-1.8.2-4.8 3-4.6 2.6.1 2.6 3 2.8 4.9.7 7 1.2 14.1 1.7 21.5zm75.2 39.6c8.3-4.9 17-9.5 25.2-15 10.5-7 17.7-16.6 19.5-29.6 3-21.5-11.9-40-33.9-40.8-15-.6-26.8 6.4-36.6 17.4-9.1 10.1-12 23.4-18.3 34.6 5.8 3.2 11.3 6.2 16.9 9.1.6.3 2-.2 2.6-.8 3.4-3 6.5-6.4 10.1-9.1 3-2.3 6.5-3.9 9.9-5.6.6-.3 2 0 2.3.5.4.7.4 1.9 0 2.7-.3.9-1.1 1.6-1.8 2.3-5.1 5-10.2 10.1-14.9 14.8 6.3 6.5 12.3 12.8 18.9 19.7zm-159-.3c6.1-6.6 12.2-13 18.2-19.4-4.9-4.9-10-9.9-15-15-.5-.5-1.1-1-1.2-1.6-.2-.9-.5-2.1 0-2.7.4-.6 1.7-1 2.5-.8 1.3.3 2.7.8 3.7 1.6 6 4.5 11.9 9 17.8 13.6 5.3-2.7 11.1-5.7 16.9-8.6-2.3-5.2-5-10.1-6.9-15.4-3.6-10-9.4-18.4-17.6-25.1-10.4-8.5-21.9-13.6-35.6-11.2-10.3 1.8-18.6 6.8-24 16-8.7 14.9-5 35.2 8.1 47.8 9.7 9.3 21.9 14.5 33 20.8zm166.5 89.3c4.1 2.2 8.7 4.3 12.9 6.9 3.3 2.1 6.3 4.6 9.2 7.2.7.7.6 2.3.9 3.4-1.1.2-2.4.8-3.3.5-4.6-1.4-9.2-2.9-13.6-4.6-3.7-1.5-7.2-3.4-10.5-5-4.8 6-9.4 11.7-14.2 17.7 6.1 7.6 12.9 15 21.4 20.7 13.6 9.2 28.4 13.4 44.7 9.5 11.2-2.7 20-9 24.2-20.1 5-13 .6-28.1-9.9-37.3-8.4-7.3-18.2-12-29-14.3-8.7-1.9-17.5-3-26-4.5-2.4 7-4.6 13.3-6.9 19.8zm7.5-29.7c11.3 2.3 22 4.2 32.9 3.8 12.2-.5 23.4-3.6 33.1-11.4 10.6-8.5 15.2-21.5 11.7-34.2-4-14.6-18.8-25.4-35.3-26.1-19.9-.8-36.5 7.7-52.2 17.5 2.8 7.2 5.4 14 8.1 21 .2 0 .5 0 .8-.1 8.1-2.1 16.2-4.2 24.6-3.8 1.3 0 2.5 1.4 3.8 2.2-.9 1-1.6 2.5-2.8 3-3.6 1.4-7.4 2.5-11.2 3.6-4.7 1.3-9.4 2.4-13.5 3.5v21.2zm-177.3 38c-7 3-14.2 6.1-21.5 9-2 .8-4.3.6-6.5.8-.1-.4-.3-.8-.4-1.3 5.4-9.1 15.2-12.5 23.7-17.1-2.2-6.5-4.3-12.7-6.6-19.6-9.3 1.5-19 2.4-28.3 4.8-13.8 3.6-26 10-33.9 22.8-7.2 11.8-5.7 28.8 4.1 38.5 11 10.9 24.5 13.1 39.1 10.3 12.1-2.3 22.1-8.7 30.8-17 4.8-4.5 9.1-9.5 13.3-14-4.9-6.1-9.4-11.7-13.9-17.3zm-10.1-68.3c2.4-6.3 5-13.3 7.6-20.4-12.8-8.2-26.2-15.4-41.8-17-10.5-1.1-20.8-.1-30.2 5.7-16.1 10-21.2 30.8-10 46.1 8 10.9 19.1 16.2 32.1 18.6 8.8 1.6 17.6 1.1 26.4-.1 4.6-.6 9.2-1.6 13.8-2.3 0-5.9-.5-11.5.1-16.9.6-5.5.4-4.3-3.9-5.6-6.9-2-13.8-3.8-20.6-6-1.2-.4-2-1.8-3-2.8 1.3-.8 2.6-1.7 4-2.4.4-.2 1 0 1.5 0 7.9 1.1 15.9 2.2 23.9 3.3zm130.3 105.1c2.4 7.2 4.9 14.6 7.1 22.1.6 1.9 1.1 4.8-1.5 5.7-2.7.9-3.7-1.8-4.6-3.7-3.1-6.6-6-13.2-9.1-19.8-.4-.8-1.5-1.8-2.1-1.8-7.3 1.2-14.6 2.6-22.3 4 0 8 .9 16.3 3 24.4 3.7 13.7 10.5 25.4 22.5 33.5 13.8 9.2 32.2 7.9 44-3 9.8-9.1 11.7-20.7 10.2-33-2.1-17.1-13.5-28.9-24.1-40.3-8.1 4.2-15.8 8.2-23.2 12zm-98.5-12.8c-3.5 4-7.5 8.4-11.2 12.9-9 10.9-14 23-12.9 37.7 1.6 20.8 20.7 36.6 43.4 31.2 12.9-3.1 21.5-11.8 27.8-23 4.5-8.1 6.2-17.1 7.2-26.2.5-4.5.6-9.1.9-13.2-7.8-1.6-15-3.1-22.2-4.5-.5 0-1.6.9-1.9 1.6-2.2 4.7-4.1 9.6-6.3 14.3-1.4 2.9-3 5.8-4.8 8.4-.6.8-2.2 1.5-3.2 1.3-.7-.1-1.4-1.7-1.5-2.8-.2-1.4 0-3 .4-4.4 2.4-7.1 5-14.2 7.3-21-7.3-3.9-14.8-8-22.9-12.4z"
      fill-rule="nonzero" transform="matrix(6.08037 0 0 6.08037 -3168.7391356794 -850.517)" />
    <circle class="icon" cx="1056.3176552175" cy="1098.9940307875" r="65.7783547155" stroke-width="1.56615130275" />
    <circle class="icon" cx="1495.0406721975" cy="1098.9940307875" r="65.7783547155" stroke-width="1.56615130275" />
    <path class="icon"
      d="m580.5 663.518c.172 22.614-26.102 72.586-79.75 71.755-52.98 1.042-79.482-39.499-79.482-71.755 5.283-14.959 50.734-18.974 79.482-18.974s74.361 10.011 79.75 18.974z"
      fill="none" stroke-width="11.13"
      transform="matrix(5.02264707591 0 0 4.70732516808 -1240.75948551 -1781.88983549)" />
  </g>
</svg>